<?xml version="1.0" encoding="UTF-8" standalone="no"?>
<!DOCTYPE svg PUBLIC "-//W3C//DTD SVG 1.1//EN"
 "http://www.w3.org/Graphics/SVG/1.1/DTD/svg11.dtd">
<!-- Generated by graphviz version 2.43.0 (0)
 -->
<!-- Title: dependency&#45;cruiser output Pages: 1 -->
<svg width="561pt" height="238pt"
 viewBox="0.00 0.00 561.00 238.00" xmlns="http://www.w3.org/2000/svg" xmlns:xlink="http://www.w3.org/1999/xlink">
<g id="graph0" class="graph" transform="scale(1 1) rotate(0) translate(4 234)">
<title>dependency&#45;cruiser output</title>
<polygon fill="white" stroke="transparent" points="-4,4 -4,-234 557,-234 557,4 -4,4"/>
<g id="clust1" class="cluster">
<title>cluster_src</title>
<path fill="#ffffff" stroke="black" stroke-width="2" d="M20,-8C20,-8 533,-8 533,-8 539,-8 545,-14 545,-20 545,-20 545,-210 545,-210 545,-216 539,-222 533,-222 533,-222 20,-222 20,-222 14,-222 8,-216 8,-210 8,-210 8,-20 8,-20 8,-14 14,-8 20,-8"/>
<text text-anchor="middle" x="276.5" y="-210.8" font-family="Helvetica,sans-Serif" font-weight="bold" font-size="9.00">src</text>
</g>
<g id="clust2" class="cluster">
<title>cluster_src/controllers</title>
<path fill="#ffffff" stroke="black" stroke-width="2" d="M238,-62C238,-62 289,-62 289,-62 295,-62 301,-68 301,-74 301,-74 301,-132 301,-132 301,-138 295,-144 289,-144 289,-144 238,-144 238,-144 232,-144 226,-138 226,-132 226,-132 226,-74 226,-74 226,-68 232,-62 238,-62"/>
<text text-anchor="middle" x="263.5" y="-132.8" font-family="Helvetica,sans-Serif" font-weight="bold" font-size="9.00">controllers</text>
</g>
<g id="clust3" class="cluster">
<title>cluster_src/database</title>
<path fill="#ffffff" stroke="black" stroke-width="2" d="M409,-109C409,-109 525,-109 525,-109 531,-109 537,-115 537,-121 537,-121 537,-149 537,-149 537,-155 531,-161 525,-161 525,-161 409,-161 409,-161 403,-161 397,-155 397,-149 397,-149 397,-121 397,-121 397,-115 403,-109 409,-109"/>
<text text-anchor="middle" x="467" y="-149.8" font-family="Helvetica,sans-Serif" font-weight="bold" font-size="9.00">database</text>
</g>
<g id="clust4" class="cluster">
<title>cluster_src/middlewares</title>
<path fill="#ffffff" stroke="black" stroke-width="2" d="M131,-16C131,-16 206,-16 206,-16 212,-16 218,-22 218,-28 218,-28 218,-56 218,-56 218,-62 212,-68 206,-68 206,-68 131,-68 131,-68 125,-68 119,-62 119,-56 119,-56 119,-28 119,-28 119,-22 125,-16 131,-16"/>
<text text-anchor="middle" x="168.5" y="-56.8" font-family="Helvetica,sans-Serif" font-weight="bold" font-size="9.00">middlewares</text>
</g>
<g id="clust5" class="cluster">
<title>cluster_src/routes</title>
<path fill="#ffffff" stroke="black" stroke-width="2" d="M143,-76C143,-76 194,-76 194,-76 200,-76 206,-82 206,-88 206,-88 206,-146 206,-146 206,-152 200,-158 194,-158 194,-158 143,-158 143,-158 137,-158 131,-152 131,-146 131,-146 131,-88 131,-88 131,-82 137,-76 143,-76"/>
<text text-anchor="middle" x="168.5" y="-146.8" font-family="Helvetica,sans-Serif" font-weight="bold" font-size="9.00">routes</text>
</g>
<g id="clust6" class="cluster">
<title>cluster_src/tests</title>
<path fill="#ffffff" stroke="black" stroke-width="2" d="M28,-114C28,-114 99,-114 99,-114 105,-114 111,-120 111,-126 111,-126 111,-184 111,-184 111,-190 105,-196 99,-196 99,-196 28,-196 28,-196 22,-196 16,-190 16,-184 16,-184 16,-126 16,-126 16,-120 22,-114 28,-114"/>
<text text-anchor="middle" x="63.5" y="-184.8" font-family="Helvetica,sans-Serif" font-weight="bold" font-size="9.00">tests</text>
</g>
<g id="clust7" class="cluster">
<title>cluster_src/utils</title>
<path fill="#ffffff" stroke="black" stroke-width="2" d="M321,-74C321,-74 377,-74 377,-74 383,-74 389,-80 389,-86 389,-86 389,-174 389,-174 389,-180 383,-186 377,-186 377,-186 321,-186 321,-186 315,-186 309,-180 309,-174 309,-174 309,-86 309,-86 309,-80 315,-74 321,-74"/>
<text text-anchor="middle" x="349" y="-174.8" font-family="Helvetica,sans-Serif" font-weight="bold" font-size="9.00">utils</text>
</g>
<!-- src/controllers/logs.ts -->
<g id="node1" class="node">
<title>src/controllers/logs.ts</title>
<g id="a_node1"><a xlink:href="src/controllers/logs.ts" xlink:title="logs.ts">
<path fill="#ddfeff" stroke="black" d="M284.5,-88C284.5,-88 242.5,-88 242.5,-88 239.5,-88 236.5,-85 236.5,-82 236.5,-82 236.5,-76 236.5,-76 236.5,-73 239.5,-70 242.5,-70 242.5,-70 284.5,-70 284.5,-70 287.5,-70 290.5,-73 290.5,-76 290.5,-76 290.5,-82 290.5,-82 290.5,-85 287.5,-88 284.5,-88"/>
<text text-anchor="start" x="248.5" y="-76.8" font-family="Helvetica,sans-Serif" font-size="9.00">logs.ts</text>
</a>
</g>
</g>
<!-- src/utils/execute.ts -->
<g id="node2" class="node">
<title>src/utils/execute.ts</title>
<g id="a_node2"><a xlink:href="src/utils/execute.ts" xlink:title="execute.ts">
<path fill="#ddfeff" stroke="black" d="M375,-100C375,-100 323,-100 323,-100 320,-100 317,-97 317,-94 317,-94 317,-88 317,-88 317,-85 320,-82 323,-82 323,-82 375,-82 375,-82 378,-82 381,-85 381,-88 381,-88 381,-94 381,-94 381,-97 378,-100 375,-100"/>
<text text-anchor="start" x="325" y="-88.8" font-family="Helvetica,sans-Serif" font-size="9.00">execute.ts</text>
</a>
</g>
</g>
<!-- src/controllers/logs.ts&#45;&gt;src/utils/execute.ts -->
<g id="edge1" class="edge">
<title>src/controllers/logs.ts&#45;&gt;src/utils/execute.ts</title>
<path fill="none" stroke="#000000" stroke-width="2" stroke-opacity="0.200000" d="M290.92,-82.8C297.21,-83.7 304.04,-84.68 310.72,-85.64"/>
<polygon fill="#000000" fill-opacity="0.200000" stroke="#000000" stroke-width="2" stroke-opacity="0.200000" points="310.55,-87.74 316.79,-86.51 311.15,-83.58 310.55,-87.74"/>
</g>
<!-- src/database/db&#45;init.ts -->
<g id="node5" class="node">
<title>src/database/db&#45;init.ts</title>
<g id="a_node5"><a xlink:href="src/database/db-init.ts" xlink:title="db&#45;init.ts">
<path fill="#ddfeff" stroke="black" d="M456,-135C456,-135 411,-135 411,-135 408,-135 405,-132 405,-129 405,-129 405,-123 405,-123 405,-120 408,-117 411,-117 411,-117 456,-117 456,-117 459,-117 462,-120 462,-123 462,-123 462,-129 462,-129 462,-132 459,-135 456,-135"/>
<text text-anchor="start" x="413" y="-123.8" font-family="Helvetica,sans-Serif" font-size="9.00">db&#45;init.ts</text>
</a>
</g>
</g>
<!-- src/utils/execute.ts&#45;&gt;src/database/db&#45;init.ts -->
<g id="edge16" class="edge">
<title>src/utils/execute.ts&#45;&gt;src/database/db&#45;init.ts</title>
<path fill="none" stroke="#000000" stroke-width="2" stroke-opacity="0.200000" d="M374.44,-100.12C379.28,-102.01 384.32,-104.03 389,-106 395.22,-108.62 401.86,-111.59 408.04,-114.42"/>
<polygon fill="#000000" fill-opacity="0.200000" stroke="#000000" stroke-width="2" stroke-opacity="0.200000" points="407.23,-116.36 413.56,-116.97 408.99,-112.55 407.23,-116.36"/>
</g>
<!-- src/controllers/person.ts -->
<g id="node3" class="node">
<title>src/controllers/person.ts</title>
<g id="a_node3"><a xlink:href="src/controllers/person.ts" xlink:title="person.ts">
<path fill="#ddfeff" stroke="black" d="M287,-118C287,-118 240,-118 240,-118 237,-118 234,-115 234,-112 234,-112 234,-106 234,-106 234,-103 237,-100 240,-100 240,-100 287,-100 287,-100 290,-100 293,-103 293,-106 293,-106 293,-112 293,-112 293,-115 290,-118 287,-118"/>
<text text-anchor="start" x="242" y="-106.8" font-family="Helvetica,sans-Serif" font-size="9.00">person.ts</text>
</a>
</g>
</g>
<!-- src/controllers/person.ts&#45;&gt;src/utils/execute.ts -->
<g id="edge2" class="edge">
<title>src/controllers/person.ts&#45;&gt;src/utils/execute.ts</title>
<path fill="none" stroke="#000000" stroke-width="2" stroke-opacity="0.200000" d="M293.24,-102.81C298.97,-101.57 305.06,-100.26 311.03,-98.97"/>
<polygon fill="#000000" fill-opacity="0.200000" stroke="#000000" stroke-width="2" stroke-opacity="0.200000" points="311.51,-101.02 316.93,-97.7 310.62,-96.91 311.51,-101.02"/>
</g>
<!-- src/utils/filters.ts -->
<g id="node4" class="node">
<title>src/utils/filters.ts</title>
<g id="a_node4"><a xlink:href="src/utils/filters.ts" xlink:title="filters.ts">
<path fill="#ddfeff" stroke="black" d="M370,-130C370,-130 328,-130 328,-130 325,-130 322,-127 322,-124 322,-124 322,-118 322,-118 322,-115 325,-112 328,-112 328,-112 370,-112 370,-112 373,-112 376,-115 376,-118 376,-118 376,-124 376,-124 376,-127 373,-130 370,-130"/>
<text text-anchor="start" x="330.5" y="-118.8" font-family="Helvetica,sans-Serif" font-size="9.00">filters.ts</text>
</a>
</g>
</g>
<!-- src/controllers/person.ts&#45;&gt;src/utils/filters.ts -->
<g id="edge3" class="edge">
<title>src/controllers/person.ts&#45;&gt;src/utils/filters.ts</title>
<path fill="none" stroke="#000000" stroke-width="2" stroke-opacity="0.200000" d="M293.24,-113.13C300.46,-114.17 308.26,-115.29 315.65,-116.35"/>
<polygon fill="#000000" fill-opacity="0.200000" stroke="#000000" stroke-width="2" stroke-opacity="0.200000" points="315.5,-118.45 321.73,-117.23 316.09,-114.29 315.5,-118.45"/>
</g>
<!-- src/database/utils.ts -->
<g id="node6" class="node">
<title>src/database/utils.ts</title>
<g id="a_node6"><a xlink:href="src/database/utils.ts" xlink:title="utils.ts">
<path fill="#ddfeff" stroke="black" d="M523,-135C523,-135 481,-135 481,-135 478,-135 475,-132 475,-129 475,-129 475,-123 475,-123 475,-120 478,-117 481,-117 481,-117 523,-117 523,-117 526,-117 529,-120 529,-123 529,-123 529,-129 529,-129 529,-132 526,-135 523,-135"/>
<text text-anchor="start" x="486.5" y="-123.8" font-family="Helvetica,sans-Serif" font-size="9.00">utils.ts</text>
</a>
</g>
</g>
<!-- src/database/db&#45;init.ts&#45;&gt;src/database/utils.ts -->
<g id="edge4" class="edge">
<title>src/database/db&#45;init.ts&#45;&gt;src/database/utils.ts</title>
<path fill="none" stroke="#000000" stroke-width="2" stroke-opacity="0.200000" d="M462.32,-126C464.38,-126 466.47,-126 468.56,-126"/>
<polygon fill="#000000" fill-opacity="0.200000" stroke="#000000" stroke-width="2" stroke-opacity="0.200000" points="468.78,-128.1 474.78,-126 468.78,-123.9 468.78,-128.1"/>
</g>
<!-- src/middlewares/request&#45;logs.ts -->
<g id="node7" class="node">
<title>src/middlewares/request&#45;logs.ts</title>
<g id="a_node7"><a xlink:href="src/middlewares/request-logs.ts" xlink:title="request&#45;logs.ts">
<path fill="#ddfeff" stroke="black" d="M204,-42C204,-42 133,-42 133,-42 130,-42 127,-39 127,-36 127,-36 127,-30 127,-30 127,-27 130,-24 133,-24 133,-24 204,-24 204,-24 207,-24 210,-27 210,-30 210,-30 210,-36 210,-36 210,-39 207,-42 204,-42"/>
<text text-anchor="start" x="135" y="-30.8" font-family="Helvetica,sans-Serif" font-size="9.00">request&#45;logs.ts</text>
</a>
</g>
</g>
<!-- src/middlewares/request&#45;logs.ts&#45;&gt;src/utils/execute.ts -->
<g id="edge5" class="edge">
<title>src/middlewares/request&#45;logs.ts&#45;&gt;src/utils/execute.ts</title>
<path fill="none" stroke="#000000" stroke-width="2" stroke-opacity="0.200000" d="M210.14,-36.76C236.78,-40.25 271.91,-46.82 301,-59 312.16,-63.67 323.41,-71.21 332.1,-77.79"/>
<polygon fill="#000000" fill-opacity="0.200000" stroke="#000000" stroke-width="2" stroke-opacity="0.200000" points="331.14,-79.7 337.16,-81.73 333.72,-76.39 331.14,-79.7"/>
</g>
<!-- src/routes/logs.ts -->
<g id="node8" class="node">
<title>src/routes/logs.ts</title>
<g id="a_node8"><a xlink:href="src/routes/logs.ts" xlink:title="logs.ts">
<path fill="#ddfeff" stroke="black" d="M189.5,-102C189.5,-102 147.5,-102 147.5,-102 144.5,-102 141.5,-99 141.5,-96 141.5,-96 141.5,-90 141.5,-90 141.5,-87 144.5,-84 147.5,-84 147.5,-84 189.5,-84 189.5,-84 192.5,-84 195.5,-87 195.5,-90 195.5,-90 195.5,-96 195.5,-96 195.5,-99 192.5,-102 189.5,-102"/>
<text text-anchor="start" x="153.5" y="-90.8" font-family="Helvetica,sans-Serif" font-size="9.00">logs.ts</text>
</a>
</g>
</g>
<!-- src/routes/logs.ts&#45;&gt;src/controllers/logs.ts -->
<g id="edge6" class="edge">
<title>src/routes/logs.ts&#45;&gt;src/controllers/logs.ts</title>
<path fill="none" stroke="#000000" stroke-width="2" stroke-opacity="0.200000" d="M195.9,-89.03C206.59,-87.42 219.04,-85.54 230.27,-83.85"/>
<polygon fill="#000000" fill-opacity="0.200000" stroke="#000000" stroke-width="2" stroke-opacity="0.200000" points="230.73,-85.91 236.35,-82.94 230.11,-81.75 230.73,-85.91"/>
</g>
<!-- src/routes/person.ts -->
<g id="node9" class="node">
<title>src/routes/person.ts</title>
<g id="a_node9"><a xlink:href="src/routes/person.ts" xlink:title="person.ts">
<path fill="#ddfeff" stroke="black" d="M192,-132C192,-132 145,-132 145,-132 142,-132 139,-129 139,-126 139,-126 139,-120 139,-120 139,-117 142,-114 145,-114 145,-114 192,-114 192,-114 195,-114 198,-117 198,-120 198,-120 198,-126 198,-126 198,-129 195,-132 192,-132"/>
<text text-anchor="start" x="147" y="-120.8" font-family="Helvetica,sans-Serif" font-size="9.00">person.ts</text>
</a>
</g>
</g>
<!-- src/routes/person.ts&#45;&gt;src/controllers/person.ts -->
<g id="edge7" class="edge">
<title>src/routes/person.ts&#45;&gt;src/controllers/person.ts</title>
<path fill="none" stroke="#000000" stroke-width="2" stroke-opacity="0.200000" d="M198.16,-118.69C207.53,-117.27 218.04,-115.69 227.81,-114.22"/>
<polygon fill="#000000" fill-opacity="0.200000" stroke="#000000" stroke-width="2" stroke-opacity="0.200000" points="228.15,-116.29 233.77,-113.32 227.53,-112.14 228.15,-116.29"/>
</g>
<!-- src/utils/validate.ts -->
<g id="node10" class="node">
<title>src/utils/validate.ts</title>
<g id="a_node10"><a xlink:href="src/utils/validate.ts" xlink:title="validate.ts">
<path fill="#ddfeff" stroke="black" d="M374.5,-160C374.5,-160 323.5,-160 323.5,-160 320.5,-160 317.5,-157 317.5,-154 317.5,-154 317.5,-148 317.5,-148 317.5,-145 320.5,-142 323.5,-142 323.5,-142 374.5,-142 374.5,-142 377.5,-142 380.5,-145 380.5,-148 380.5,-148 380.5,-154 380.5,-154 380.5,-157 377.5,-160 374.5,-160"/>
<text text-anchor="start" x="325.5" y="-148.8" font-family="Helvetica,sans-Serif" font-size="9.00">validate.ts</text>
</a>
</g>
</g>
<!-- src/routes/person.ts&#45;&gt;src/utils/validate.ts -->
<g id="edge8" class="edge">
<title>src/routes/person.ts&#45;&gt;src/utils/validate.ts</title>
<path fill="none" stroke="#000000" stroke-width="2" stroke-opacity="0.200000" d="M186.26,-132.06C197.23,-137.49 212.05,-143.92 226,-147 254.14,-153.21 286.81,-153.95 311.25,-153.28"/>
<polygon fill="#000000" fill-opacity="0.200000" stroke="#000000" stroke-width="2" stroke-opacity="0.200000" points="311.35,-155.38 317.28,-153.08 311.21,-151.18 311.35,-155.38"/>
</g>
<!-- src/server.ts -->
<g id="node11" class="node">
<title>src/server.ts</title>
<g id="a_node11"><a xlink:href="src/server.ts" xlink:title="server.ts">
<path fill="#ddfeff" stroke="black" d="M85,-102C85,-102 42,-102 42,-102 39,-102 36,-99 36,-96 36,-96 36,-90 36,-90 36,-87 39,-84 42,-84 42,-84 85,-84 85,-84 88,-84 91,-87 91,-90 91,-90 91,-96 91,-96 91,-99 88,-102 85,-102"/>
<text text-anchor="start" x="44" y="-90.8" font-family="Helvetica,sans-Serif" font-size="9.00">server.ts</text>
</a>
</g>
</g>
<!-- src/server.ts&#45;&gt;src/middlewares/request&#45;logs.ts -->
<g id="edge9" class="edge">
<title>src/server.ts&#45;&gt;src/middlewares/request&#45;logs.ts</title>
<path fill="none" stroke="#000000" stroke-width="2" stroke-opacity="0.200000" d="M80.14,-83.89C97.94,-73.52 127.08,-56.54 146.76,-45.08"/>
<polygon fill="#000000" fill-opacity="0.200000" stroke="#000000" stroke-width="2" stroke-opacity="0.200000" points="147.92,-46.84 152.05,-42 145.81,-43.21 147.92,-46.84"/>
</g>
<!-- src/server.ts&#45;&gt;src/routes/logs.ts -->
<g id="edge10" class="edge">
<title>src/server.ts&#45;&gt;src/routes/logs.ts</title>
<path fill="none" stroke="#000000" stroke-width="2" stroke-opacity="0.200000" d="M91.03,-93C104.46,-93 120.9,-93 135.08,-93"/>
<polygon fill="#000000" fill-opacity="0.200000" stroke="#000000" stroke-width="2" stroke-opacity="0.200000" points="135.42,-95.1 141.42,-93 135.42,-90.9 135.42,-95.1"/>
</g>
<!-- src/server.ts&#45;&gt;src/routes/person.ts -->
<g id="edge11" class="edge">
<title>src/server.ts&#45;&gt;src/routes/person.ts</title>
<path fill="none" stroke="#000000" stroke-width="2" stroke-opacity="0.200000" d="M91.03,-100.73C103.74,-104.43 119.14,-108.91 132.77,-112.88"/>
<polygon fill="#000000" fill-opacity="0.200000" stroke="#000000" stroke-width="2" stroke-opacity="0.200000" points="132.55,-115.01 138.9,-114.67 133.72,-110.97 132.55,-115.01"/>
</g>
<!-- src/tests/filters.test.ts -->
<g id="node12" class="node">
<title>src/tests/filters.test.ts</title>
<g id="a_node12"><a xlink:href="src/tests/filters.test.ts" xlink:title="filters.test.ts">
<path fill="#ddfeff" stroke="black" d="M94.5,-140C94.5,-140 32.5,-140 32.5,-140 29.5,-140 26.5,-137 26.5,-134 26.5,-134 26.5,-128 26.5,-128 26.5,-125 29.5,-122 32.5,-122 32.5,-122 94.5,-122 94.5,-122 97.5,-122 100.5,-125 100.5,-128 100.5,-128 100.5,-134 100.5,-134 100.5,-137 97.5,-140 94.5,-140"/>
<text text-anchor="start" x="34.5" y="-128.8" font-family="Helvetica,sans-Serif" font-size="9.00">filters.test.ts</text>
</a>
</g>
</g>
<!-- src/tests/filters.test.ts&#45;&gt;src/utils/filters.ts -->
<g id="edge12" class="edge">
<title>src/tests/filters.test.ts&#45;&gt;src/utils/filters.ts</title>
<path fill="none" stroke="#000000" stroke-width="2" stroke-opacity="0.200000" d="M100.52,-139.44C104.29,-141.23 107.88,-143.39 111,-146 116.8,-150.85 112.52,-157.11 119,-161 153.78,-181.87 266.52,-168.36 301,-147 306.14,-143.82 304.2,-139.68 309,-136 311.26,-134.27 313.73,-132.72 316.31,-131.33"/>
<polygon fill="#000000" fill-opacity="0.200000" stroke="#000000" stroke-width="2" stroke-opacity="0.200000" points="317.24,-133.22 321.72,-128.71 315.4,-129.44 317.24,-133.22"/>
</g>
<!-- src/tests/person.test.ts -->
<g id="node13" class="node">
<title>src/tests/person.test.ts</title>
<g id="a_node13"><a xlink:href="src/tests/person.test.ts" xlink:title="person.test.ts">
<path fill="#ddfeff" stroke="black" d="M97,-170C97,-170 30,-170 30,-170 27,-170 24,-167 24,-164 24,-164 24,-158 24,-158 24,-155 27,-152 30,-152 30,-152 97,-152 97,-152 100,-152 103,-155 103,-158 103,-158 103,-164 103,-164 103,-167 100,-170 97,-170"/>
<text text-anchor="start" x="32" y="-158.8" font-family="Helvetica,sans-Serif" font-size="9.00">person.test.ts</text>
</a>
</g>
</g>
<!-- src/tests/person.test.ts&#45;&gt;src/database/db&#45;init.ts -->
<g id="edge13" class="edge">
<title>src/tests/person.test.ts&#45;&gt;src/database/db&#45;init.ts</title>
<path fill="none" stroke="#000000" stroke-width="2" stroke-opacity="0.200000" d="M85.39,-170.14C139.3,-192.26 286.1,-242.99 389,-189 408.12,-178.97 420.49,-156.3 426.98,-141.07"/>
<polygon fill="#000000" fill-opacity="0.200000" stroke="#000000" stroke-width="2" stroke-opacity="0.200000" points="428.95,-141.8 429.25,-135.45 425.05,-140.23 428.95,-141.8"/>
</g>
<!-- src/tests/person.test.ts&#45;&gt;src/routes/person.ts -->
<g id="edge14" class="edge">
<title>src/tests/person.test.ts&#45;&gt;src/routes/person.ts</title>
<path fill="none" stroke="#000000" stroke-width="2" stroke-opacity="0.200000" d="M93.64,-151.97C99.42,-150.07 105.42,-148.03 111,-146 120.81,-142.43 131.44,-138.2 140.8,-134.35"/>
<polygon fill="#000000" fill-opacity="0.200000" stroke="#000000" stroke-width="2" stroke-opacity="0.200000" points="141.71,-136.24 146.45,-132 140.1,-132.36 141.71,-136.24"/>
</g>
<!-- src/tests/person.test.ts&#45;&gt;src/utils/validate.ts -->
<g id="edge15" class="edge">
<title>src/tests/person.test.ts&#45;&gt;src/utils/validate.ts</title>
<path fill="none" stroke="#000000" stroke-width="2" stroke-opacity="0.200000" d="M103.11,-168.18C108.43,-168.93 113.84,-169.58 119,-170 162.85,-173.6 174.12,-173.19 218,-170 249.7,-167.7 285.4,-162.27 311.36,-157.81"/>
<polygon fill="#000000" fill-opacity="0.200000" stroke="#000000" stroke-width="2" stroke-opacity="0.200000" points="311.86,-159.85 317.41,-156.75 311.13,-155.71 311.86,-159.85"/>
</g>
<!-- src/types..ts -->
<g id="node14" class="node">
<title>src/types..ts</title>
<g id="a_node14"><a xlink:href="src/types..ts" xlink:title="types..ts">
<path fill="#ccffcc" stroke="black" d="M85.5,-53C85.5,-53 41.5,-53 41.5,-53 38.5,-53 35.5,-50 35.5,-47 35.5,-47 35.5,-41 35.5,-41 35.5,-38 38.5,-35 41.5,-35 41.5,-35 85.5,-35 85.5,-35 88.5,-35 91.5,-38 91.5,-41 91.5,-41 91.5,-47 91.5,-47 91.5,-50 88.5,-53 85.5,-53"/>
<text text-anchor="start" x="43.5" y="-41.8" font-family="Helvetica,sans-Serif" font-size="9.00">types..ts</text>
</a>
</g>
</g>
</g>
</svg>
